<svg width="25" height="24" viewBox="0 0 25 24" fill="none" xmlns="http://www.w3.org/2000/svg">
<path d="M17.5002 6.00019C17.235 6.00019 16.9806 6.10554 16.7931 6.29308C16.6055 6.48062 16.5002 6.73497 16.5002 7.00019V14.5902L8.21019 6.29019C8.02188 6.10188 7.76649 5.99609 7.50019 5.99609C7.23388 5.99609 6.97849 6.10188 6.79019 6.29019C6.60188 6.47849 6.49609 6.73388 6.49609 7.00019C6.49609 7.26649 6.60188 7.52188 6.79019 7.71019L15.0902 16.0002H7.50019C7.23497 16.0002 6.98062 16.1055 6.79308 16.2931C6.60554 16.4806 6.50019 16.735 6.50019 17.0002C6.50019 17.2654 6.60554 17.5198 6.79308 17.7073C6.98062 17.8948 7.23497 18.0002 7.50019 18.0002H17.5002C17.6309 17.9986 17.76 17.9714 17.8802 17.9202C18.1245 17.8187 18.3187 17.6245 18.4202 17.3802C18.4714 17.26 18.4986 17.1309 18.5002 17.0002V7.00019C18.5002 6.73497 18.3948 6.48062 18.2073 6.29308C18.0198 6.10554 17.7654 6.00019 17.5002 6.00019Z" fill="#19AF00"/>
</svg>
