<svg width="32" height="33" viewBox="0 0 32 33" fill="none" xmlns="http://www.w3.org/2000/svg">
<path d="M23.6129 15.1944C23.489 15.0695 23.3415 14.9703 23.179 14.9026C23.0166 14.8349 22.8423 14.8 22.6663 14.8C22.4902 14.8 22.316 14.8349 22.1535 14.9026C21.991 14.9703 21.8435 15.0695 21.7196 15.1944L17.3329 19.5944V9.47445C17.3329 9.12082 17.1925 8.78169 16.9424 8.53164C16.6924 8.28159 16.3532 8.14111 15.9996 8.14111C15.646 8.14111 15.3068 8.28159 15.0568 8.53164C14.8067 8.78169 14.6663 9.12082 14.6663 9.47445V19.5944L10.2796 15.1944C10.0285 14.9434 9.688 14.8023 9.33293 14.8023C8.97786 14.8023 8.63733 14.9434 8.38626 15.1944C8.13519 15.4455 7.99414 15.786 7.99414 16.1411C7.99414 16.4962 8.13519 16.8367 8.38626 17.0878L15.0529 23.7544C15.1797 23.8758 15.3293 23.971 15.4929 24.0344C15.6525 24.105 15.8251 24.1414 15.9996 24.1414C16.1741 24.1414 16.3467 24.105 16.5063 24.0344C16.6699 23.971 16.8195 23.8758 16.9463 23.7544L23.6129 17.0878C23.7379 16.9638 23.8371 16.8164 23.9048 16.6539C23.9725 16.4914 24.0073 16.3171 24.0073 16.1411C24.0073 15.9651 23.9725 15.7908 23.9048 15.6283C23.8371 15.4659 23.7379 15.3184 23.6129 15.1944Z" fill="#E14040"/>
</svg>
