<svg width="40" height="40" viewBox="0 0 40 40" fill="none" xmlns="http://www.w3.org/2000/svg">
<path d="M20 5C12 5 5 11.4333 5 20C5 23.5333 6.23333 26.7833 8.28333 29.35L5 32.65L7.35 35L10.6333 31.7167C13.2933 33.8409 16.5959 34.9986 20 35C23.8333 35 27.6833 33.5333 30.6 30.6C31.997 29.2112 33.1051 27.5595 33.8603 25.7401C34.6155 23.9208 35.0028 21.9699 35 20V5H20ZM26.3833 20.4333L17.7833 28.15C17.5167 28.4 17.1 28.3833 16.85 28.1333C16.7361 28.0213 16.6666 27.8718 16.6544 27.7125C16.6421 27.5532 16.6879 27.3948 16.7833 27.2667L20.85 21.7167L14.1 21.05C13.9351 21.0345 13.7782 20.9716 13.6483 20.8688C13.5184 20.7659 13.4212 20.6277 13.3683 20.4707C13.3153 20.3138 13.3091 20.1448 13.3502 19.9844C13.3913 19.8239 13.4781 19.6788 13.6 19.5667L22.2 11.85C22.4667 11.6 22.8833 11.6167 23.1333 11.8667C23.3667 12.1 23.4 12.4667 23.2 12.7333L19.1333 18.2833L25.8833 18.95C26.6333 19.0167 26.9333 19.9333 26.3833 20.4333Z" fill="url(#paint0_linear_247_710)"/>
<defs>
<linearGradient id="paint0_linear_247_710" x1="10.9447" y1="5" x2="23.0184" y2="27.9043" gradientUnits="userSpaceOnUse">
<stop offset="0.0995216" stop-color="#1C5BB8"/>
<stop offset="1" stop-color="#1CB82C"/>
</linearGradient>
</defs>
</svg>
