<svg width="44" height="44" viewBox="0 0 44 44" fill="none" xmlns="http://www.w3.org/2000/svg">
<rect width="44" height="44" rx="22" fill="#F5F5F5"/>
<path d="M17 16C17 15.4477 16.5523 15 16 15C15.4477 15 15 15.4477 15 16V23.2676C14.4022 23.6134 14 24.2597 14 25C14 25.7403 14.4022 26.3866 15 26.7324V28C15 28.5523 15.4477 29 16 29C16.5523 29 17 28.5523 17 28V26.7324C17.5978 26.3866 18 25.7403 18 25C18 24.2597 17.5978 23.6134 17 23.2676V16Z" fill="#19AF00"/>
<path d="M23 16C23 15.4477 22.5523 15 22 15C21.4477 15 21 15.4477 21 16V17.2676C20.4022 17.6134 20 18.2597 20 19C20 19.7403 20.4022 20.3866 21 20.7324V28C21 28.5523 21.4477 29 22 29C22.5523 29 23 28.5523 23 28V20.7324C23.5978 20.3866 24 19.7403 24 19C24 18.2597 23.5978 17.6134 23 17.2676V16Z" fill="#19AF00"/>
<path d="M28 15C28.5523 15 29 15.4477 29 16V23.2676C29.5978 23.6134 30 24.2597 30 25C30 25.7403 29.5978 26.3866 29 26.7324V28C29 28.5523 28.5523 29 28 29C27.4477 29 27 28.5523 27 28V26.7324C26.4022 26.3866 26 25.7403 26 25C26 24.2597 26.4022 23.6134 27 23.2676V16C27 15.4477 27.4477 15 28 15Z" fill="#19AF00"/>
</svg>
