<svg width="28" height="28" viewBox="0 0 28 28" fill="none" xmlns="http://www.w3.org/2000/svg">
<path d="M10.5003 6.41675H17.5003C19.7528 6.41675 21.5837 8.24763 21.5837 10.5001V17.5001C21.5837 18.583 21.1535 19.6217 20.3877 20.3874C19.6219 21.1532 18.5833 21.5834 17.5003 21.5834H10.5003C8.24787 21.5834 6.41699 19.7525 6.41699 17.5001V10.5001C6.41699 9.41711 6.8472 8.3785 7.61297 7.61273C8.37875 6.84696 9.41736 6.41675 10.5003 6.41675ZM10.3337 6.58341C9.3391 6.58341 8.38527 6.9785 7.68201 7.68176C6.97875 8.38503 6.58366 9.33885 6.58366 10.3334V17.6667C6.58366 19.7393 8.26111 21.4167 10.3337 21.4167H17.667C18.6616 21.4167 19.6154 21.0217 20.3186 20.3184C21.0219 19.6151 21.417 18.6613 21.417 17.6667V10.3334C21.417 8.26087 19.7395 6.58341 17.667 6.58341H10.3337ZM18.3753 9.33341C18.4527 9.33341 18.5269 9.36414 18.5816 9.41884C18.6363 9.47354 18.667 9.54773 18.667 9.62508C18.667 9.70244 18.6363 9.77662 18.5816 9.83132C18.5269 9.88602 18.4527 9.91675 18.3753 9.91675C18.298 9.91675 18.2238 9.88602 18.1691 9.83132C18.1144 9.77662 18.0837 9.70244 18.0837 9.62508C18.0837 9.54773 18.1144 9.47354 18.1691 9.41884C18.2238 9.36414 18.298 9.33341 18.3753 9.33341ZM14.0003 10.5834C14.9065 10.5834 15.7755 10.9434 16.4163 11.5841C17.057 12.2249 17.417 13.0939 17.417 14.0001C17.417 14.9062 17.057 15.7753 16.4163 16.416C15.7755 17.0568 14.9065 17.4167 14.0003 17.4167C13.0942 17.4167 12.2251 17.0568 11.5844 16.416C10.9436 15.7753 10.5837 14.9062 10.5837 14.0001C10.5837 13.0939 10.9436 12.2249 11.5844 11.5841C12.2251 10.9434 13.0942 10.5834 14.0003 10.5834ZM14.0003 10.7501C13.1384 10.7501 12.3117 11.0925 11.7022 11.702C11.0927 12.3115 10.7503 13.1381 10.7503 14.0001C10.7503 14.862 11.0927 15.6887 11.7022 16.2982C12.3117 16.9077 13.1384 17.2501 14.0003 17.2501C14.8623 17.2501 15.6889 16.9077 16.2984 16.2982C16.9079 15.6887 17.2503 14.862 17.2503 14.0001C17.2503 13.1381 16.9079 12.3115 16.2984 11.702C15.6889 11.0925 14.8623 10.7501 14.0003 10.7501Z" fill="#0A0A0A" stroke="#9E9E9E" stroke-width="1.5"/>
</svg>
