<svg width="127" height="127" viewBox="0 0 127 127" fill="none" xmlns="http://www.w3.org/2000/svg">
<rect x="0.333008" y="0.641113" width="126" height="126" rx="63" fill="#F5F5F5"/>
<path d="M50.1328 102.042C50.1328 102.042 51.2029 111.86 59.5727 111.868C70.1146 111.878 71.7999 110.165 75.0198 102.042C75.0198 102.042 53.3513 103.771 50.1328 102.042Z" fill="#7C8070"/>
<path d="M47.1952 92.077C47.1952 92.077 47.4261 87.2382 43.5094 79.6342C40.3047 73.417 24.0379 66.2693 27.9311 43.4575C30.2233 30.0207 41.52 19.6116 54.6982 16.1235C66.7304 12.9381 88.5274 14.4548 96.7369 38.6187C104.398 61.1719 86.3486 73.8871 80.4921 80.6711C75.8164 86.0865 77.1506 93.1499 77.1506 93.1499C77.1506 93.1499 56.873 98.5293 47.1952 92.077Z" fill="#C0ECBA"/>
<path d="M53.7442 16.3888C53.7497 16.3874 53.7566 16.3846 53.7622 16.3832C53.7553 16.3846 53.7497 16.3874 53.7442 16.3888ZM53.8562 16.3556C53.8645 16.3528 53.8728 16.3514 53.8811 16.3487C53.8742 16.3501 53.8631 16.3542 53.8562 16.3556ZM53.9682 16.3238C53.9806 16.321 53.9917 16.3169 54.0041 16.3127C53.9931 16.3169 53.9793 16.321 53.9682 16.3238Z" fill="#F9FCFC"/>
<path d="M72.7714 24.1993C72.7714 24.1993 63.0937 36.5453 51.1693 40.0017C39.245 43.458 29.5673 61.0853 60.847 81.8232C60.847 81.8232 66.1104 73.2225 74.7305 67.9979C100.768 52.2149 69.7768 41.1547 72.7714 24.1993Z" fill="url(#paint0_linear_247_952)"/>
<path d="M74.7311 67.9979C74.7421 67.9924 74.7546 67.9841 74.7656 67.9772C74.7532 67.9855 74.7421 67.991 74.7311 67.9979ZM74.778 67.9703C74.785 67.9647 74.7933 67.9606 74.8002 67.9564C74.7933 67.9606 74.785 67.9661 74.778 67.9703ZM74.8154 67.9468C74.8209 67.944 74.8306 67.9371 74.8375 67.9343C74.8306 67.9385 74.8223 67.9426 74.8154 67.9468ZM74.8486 67.926C74.8569 67.9219 74.8666 67.9164 74.8735 67.9122C74.8652 67.9164 74.8569 67.9219 74.8486 67.926ZM74.926 67.879C74.9357 67.8735 74.944 67.868 74.9536 67.8624C74.9453 67.868 74.9357 67.8735 74.926 67.879ZM75.0034 67.832C75.0089 67.8279 75.0158 67.8251 75.0214 67.821C75.0158 67.8237 75.0089 67.8293 75.0034 67.832ZM75.0394 67.8099C75.0449 67.8072 75.0518 67.803 75.0587 67.7988C75.0518 67.803 75.0449 67.8058 75.0394 67.8099ZM75.1154 67.7629C75.1237 67.7588 75.1334 67.7518 75.1403 67.7477C75.132 67.7532 75.1237 67.7588 75.1154 67.7629ZM75.1901 67.7173C75.1956 67.7131 75.2053 67.7076 75.2108 67.7035C75.2039 67.7076 75.197 67.7117 75.1901 67.7173ZM75.2219 67.6965C75.2302 67.6924 75.2412 67.6855 75.2495 67.6799C75.2398 67.6855 75.2315 67.691 75.2219 67.6965ZM75.2619 67.6717C75.2702 67.6675 75.2813 67.6606 75.291 67.6551C75.2813 67.6606 75.2702 67.6661 75.2619 67.6717ZM75.3076 67.644C75.3117 67.6412 75.3173 67.6371 75.3228 67.6343C75.3173 67.6371 75.3131 67.6412 75.3076 67.644ZM75.3421 67.6233C75.3477 67.6191 75.3504 67.6163 75.3574 67.6136C75.3518 67.6163 75.3463 67.6191 75.3421 67.6233ZM75.3753 67.6012C75.3808 67.5984 75.3836 67.5956 75.3878 67.5928C75.3836 67.5956 75.3795 67.5984 75.3753 67.6012ZM75.4099 67.5804C75.4126 67.579 75.414 67.5776 75.4168 67.5749C75.414 67.5762 75.4113 67.579 75.4099 67.5804ZM75.4583 67.5486C75.4638 67.5458 75.4679 67.5444 75.4721 67.5417C75.4679 67.5444 75.4624 67.5458 75.4583 67.5486ZM75.4928 67.5279C75.497 67.5251 75.4997 67.5237 75.5039 67.521C75.5011 67.5223 75.4956 67.5265 75.4928 67.5279ZM75.5246 67.5071C75.5302 67.5044 75.5315 67.503 75.5371 67.5002C75.5329 67.503 75.5288 67.5044 75.5246 67.5071ZM75.5592 67.4864C75.562 67.4836 75.5634 67.4836 75.5661 67.4809C75.5634 67.4822 75.562 67.485 75.5592 67.4864ZM75.6463 67.4311C75.6477 67.4297 75.6504 67.4283 75.6518 67.427C75.6491 67.4283 75.6477 67.4297 75.6463 67.4311ZM75.674 67.4131C75.6795 67.4103 75.6795 67.4103 75.6836 67.4062C75.6808 67.409 75.6781 67.4103 75.674 67.4131ZM75.7044 67.3938C75.7099 67.391 75.7126 67.3882 75.7168 67.3855C75.7126 67.3882 75.7085 67.391 75.7044 67.3938Z" fill="#CAF9C3"/>
<path d="M60.8481 81.8232C46.1158 72.057 40.4737 62.9821 39.8682 55.7501C45.1481 59.7732 51.9446 61.612 58.7453 61.612C63.5454 61.612 68.3483 60.6954 72.6231 58.9866C78.1768 57.5985 81.7119 54.3454 84.2226 50.1218C86.4332 55.5911 85.5415 61.1157 75.7407 67.3716H75.7394C75.7324 67.3758 75.7255 67.3813 75.7172 67.3855C75.7131 67.3882 75.7103 67.391 75.7048 67.3938C75.6979 67.3979 75.6909 67.4034 75.684 67.4062C75.6799 67.4103 75.6799 67.4104 75.6744 67.4131C75.6675 67.4173 75.6592 67.4228 75.6522 67.427C75.6509 67.4283 75.6481 67.4297 75.6467 67.4311C75.6191 67.4477 75.5942 67.4643 75.5665 67.4809C75.5638 67.4836 75.5624 67.4836 75.5596 67.4864C75.5513 67.4905 75.5444 67.4961 75.5375 67.5002C75.532 67.503 75.5306 67.5044 75.5251 67.5071C75.5181 67.5113 75.5112 67.5154 75.5043 67.521C75.5002 67.5237 75.4974 67.5251 75.4933 67.5279C75.4864 67.532 75.4794 67.5362 75.4725 67.5417C75.4684 67.5444 75.4642 67.5458 75.4587 67.5486C75.4449 67.5583 75.431 67.5666 75.4172 67.5749C75.4145 67.5776 75.4131 67.579 75.4103 67.5804C75.402 67.5845 75.3965 67.5887 75.3882 67.5929C75.384 67.5956 75.3813 67.5984 75.3757 67.6012C75.3702 67.6053 75.3633 67.6094 75.3578 67.6136C75.3509 67.6163 75.3481 67.6191 75.3426 67.6233C75.3356 67.626 75.3287 67.6302 75.3232 67.6343C75.3177 67.6371 75.3121 67.6412 75.308 67.644C75.3025 67.6481 75.297 67.6509 75.2914 67.6551C75.2817 67.6606 75.2707 67.6675 75.2624 67.6717C75.2568 67.6758 75.2541 67.6772 75.2499 67.6799C75.2416 67.6855 75.2306 67.6924 75.2223 67.6965C75.2195 67.6993 75.2154 67.7021 75.2112 67.7035C75.2057 67.7076 75.196 67.7131 75.1905 67.7173C75.185 67.72 75.1794 67.7242 75.1739 67.727C75.1684 67.7311 75.1615 67.7353 75.1546 67.7394C75.1504 67.7422 75.1449 67.7449 75.1407 67.7477C75.1338 67.7518 75.1241 67.7588 75.1158 67.7629C75.1131 67.7657 75.1103 67.7671 75.1061 67.7684C75.0965 67.7753 75.084 67.7822 75.073 67.7892C75.0688 67.7919 75.0633 67.7961 75.0591 67.7988C75.0522 67.803 75.0453 67.8072 75.0398 67.8099C75.0329 67.8141 75.0287 67.8168 75.0218 67.821C75.0163 67.8251 75.0094 67.8279 75.0038 67.832C74.9997 67.8348 74.9942 67.8376 74.99 67.8403C74.9817 67.8459 74.9748 67.85 74.9665 67.8555C74.9624 67.8569 74.9582 67.8597 74.9541 67.8624C74.9444 67.868 74.9361 67.8735 74.9264 67.879C74.9236 67.8804 74.9223 67.8818 74.9195 67.8832C74.9084 67.8901 74.8974 67.897 74.8863 67.9039C74.8822 67.9067 74.878 67.9095 74.8739 67.9122C74.867 67.9164 74.8573 67.9219 74.849 67.926C74.8448 67.9288 74.8421 67.9316 74.8379 67.9343C74.831 67.9371 74.8213 67.944 74.8158 67.9468C74.8103 67.9509 74.8061 67.9537 74.8006 67.9564C74.7937 67.9606 74.7854 67.9648 74.7785 67.9703C74.7743 67.973 74.7702 67.9758 74.7661 67.9772C74.755 67.9841 74.7425 67.9924 74.7315 67.9979C66.1114 73.2225 60.8481 81.8232 60.8481 81.8232Z" fill="url(#paint1_linear_247_952)"/>
<path d="M73.92 56.9668C73.92 56.9668 67.5078 67.7796 59.6385 69.4428C59.3965 66.1413 59.4352 63.061 59.6882 60.2172C68 57.3028 70.331 44.4065 70.4305 43.8342C70.4305 43.8342 67.0765 55.6493 59.8389 58.7157C61.5726 43.9061 68.7977 35.8542 68.7977 35.8542C60.6989 42.1475 57.6946 51.1796 57.1485 60.1591C50.0479 52.2966 51.3875 44.7715 51.3875 44.7715C51.2576 45.1199 48.3805 53.2492 57.0656 62.0615C56.984 65.5648 57.2425 69.028 57.7029 72.2894C45.8532 66.3003 44.6408 55.5387 44.6408 55.5387C44.6394 55.6617 44.5136 67.6925 57.9642 73.9706C59.6288 84.0907 62.9676 91.8467 62.9676 91.8467C63.8745 94.1735 65.1686 91.8467 65.1686 91.8467C61.9722 84.1004 60.3408 77.0757 59.7421 70.8226C68.2627 69.1124 73.6836 57.4839 73.92 56.9668Z" fill="#F8FFF7"/>
<path d="M69.144 107.584C60.076 107.584 52.8827 106.174 51.3052 106.114C50.3458 103.969 50.1328 102.043 50.1328 102.043C51.2057 102.619 54.3274 102.811 58.0146 102.811C65.3891 102.811 75.0198 102.043 75.0198 102.043C74.3893 103.633 72.9958 106.388 72.4054 107.522C71.2966 107.565 70.2072 107.584 69.144 107.584Z" fill="#585B4D"/>
<path d="M45.3517 88.39C45.3517 88.39 61.9421 90.2343 78.7634 88.39C78.7634 88.39 80.1459 103.829 70.6977 104.289C64.9823 104.568 59.6029 104.51 56.2475 104.42C51.7653 104.3 47.785 101.419 46.3914 97.158C45.6725 94.9626 45.2314 92.1063 45.3517 88.39Z" fill="#909385"/>
<path d="M75.9299 96.099C75.9299 96.099 54.6265 100.212 47.3682 95.2515C47.3682 95.2515 49.5567 104.267 74.9607 98.9097C74.9607 98.9097 75.9824 97.6225 75.9299 96.099Z" fill="#6A6F5E"/>
<path d="M75.9299 91.0487C75.9299 91.0487 54.6265 95.1618 47.3682 90.2012C47.3682 90.2012 49.5567 99.2167 74.9607 93.8594C74.9607 93.8594 75.9824 92.5723 75.9299 91.0487Z" fill="#6A6F5E"/>
<path d="M44.925 37.0908C41.1935 37.0908 38.1008 35.4235 37.3612 32.6916C36.3948 29.1275 39.8013 25.1015 44.9678 23.701C46.1762 23.3734 47.3734 23.2185 48.5113 23.2185C52.2427 23.2185 55.3355 24.8858 56.0765 27.6177C57.0429 31.1819 53.6363 35.2064 48.4698 36.6083C47.2615 36.936 46.0628 37.0908 44.925 37.0908Z" fill="#FDFEFF"/>
<defs>
<linearGradient id="paint0_linear_247_952" x1="48.8064" y1="81.8232" x2="74.7859" y2="42.9793" gradientUnits="userSpaceOnUse">
<stop offset="0.0995216" stop-color="#1C5BB8"/>
<stop offset="1" stop-color="#1CB82C"/>
</linearGradient>
<linearGradient id="paint1_linear_247_952" x1="48.8555" y1="81.8232" x2="62.4968" y2="33.2283" gradientUnits="userSpaceOnUse">
<stop offset="0.0995216" stop-color="#1C5BB8"/>
<stop offset="1" stop-color="#1CB82C"/>
</linearGradient>
</defs>
</svg>
