<svg width="137" height="138" viewBox="0 0 137 138" fill="none" xmlns="http://www.w3.org/2000/svg">
<g clip-path="url(#clip0_375_325)">
<path d="M31.5005 44.9812C32.4873 43.6936 33.3903 42.2786 34.677 41.2743C51.2366 28.27 74.3742 34.5476 87.6502 44.7052C100.926 54.8626 100.97 75.3581 115.729 79.0026C119.619 79.7961 123.396 80.7089 125.416 84.1645C126.178 85.6505 126.194 87.2456 125.351 88.5519C108.575 113.444 71.4687 113.141 51.0029 100.422C38.4887 92.0768 30.2423 80.7263 27.6274 67.1549C26.5575 63.5789 28.3915 59.1587 26.5518 55.8737C23.9922 54.3537 18.8038 54.8594 15.6595 54.6405C11.5491 54.6441 8.69057 51.5763 9.91958 47.472C12.9505 35.8206 28.3558 47.5033 31.5005 44.9812ZM40.2206 53.1781C39.8528 55.5169 41.5464 57.6067 43.5392 58.0893C61.0582 61.0316 73.9192 71.2862 81.85 85.9356C82.9535 88.1317 85.5662 88.6829 87.4912 87.7535C89.7085 86.5304 90.2171 83.987 89.2569 82.0215C80.1628 64.0324 63.7471 53.3479 45.1768 49.833C42.7073 49.4557 40.602 50.9985 40.2206 53.1781Z" fill="white"/>
</g>
<defs>
<clipPath id="clip0_375_325">
<rect width="100" height="100" fill="white" transform="translate(86.6025 0.5) rotate(60)"/>
</clipPath>
</defs>
</svg>
