<svg width="127" height="127" viewBox="0 0 127 127" fill="none" xmlns="http://www.w3.org/2000/svg">
<rect x="0.333008" y="0.641113" width="126" height="126" rx="63" fill="#F5F5F5"/>
<path d="M35.7383 54.6633V87.3672C35.7383 97.597 44.0309 105.89 54.2607 105.89H71.8185C82.0483 105.89 90.3409 97.597 90.3409 87.3672V54.6633L63.0398 35.4891L35.7383 54.6633Z" fill="url(#paint0_linear_247_1005)"/>
<path d="M105.226 50.5298L90.3414 40.0764L77.6611 31.1709L65.5459 22.662C64.0421 21.6062 62.038 21.6062 60.5346 22.662L48.419 31.1709L35.7387 40.0764L20.8545 50.5298C18.8841 51.9137 18.4085 54.6326 19.7923 56.603C21.1761 58.5734 23.8954 59.0491 25.8659 57.6652L35.7387 50.7314L63.0402 31.5572L90.3414 50.7314L100.214 57.6652C100.976 58.2005 101.851 58.4573 102.716 58.4573C104.088 58.4573 105.439 57.8111 106.288 56.603C107.672 54.6326 107.196 51.9137 105.226 50.5298Z" fill="#27963C"/>
<path d="M72 54.8896C72 54.8896 44.4774 67.7023 57.4979 84.6358C58.147 79.1056 60.2962 68.3272 67.3778 61.3915C67.3778 61.3915 60.7497 69.32 60.3402 83.4208C60.3398 83.4226 60.3395 83.424 60.3395 83.4257C60.3391 83.433 60.3391 83.4455 60.3388 83.4625C60.3374 83.516 60.2289 84.9548 59.7287 85.8896C60.7165 85.4082 62.3185 84.8968 63.1616 84.4924C78.5776 76.9985 67.0346 62.9501 72 54.8896Z" fill="white"/>
<defs>
<linearGradient id="paint0_linear_247_1005" x1="46.5582" y1="105.89" x2="78.4898" y2="58.9073" gradientUnits="userSpaceOnUse">
<stop offset="0.0995216" stop-color="#1C5BB8"/>
<stop offset="1" stop-color="#1CB82C"/>
</linearGradient>
</defs>
</svg>
