<svg width="196" height="200" viewBox="0 0 196 200" fill="none" xmlns="http://www.w3.org/2000/svg">
<g clip-path="url(#clip0_88_531)">
<path d="M39.984 81.6426C44.586 81.7876 48.9147 83.1816 52.8459 85.4296C59.2313 89.0814 64.7613 94.7947 70.0291 100.993C80.5642 113.39 90.3237 127.766 100.493 132.58C110.037 137.099 118.25 137.243 124.784 134.821C127.595 133.78 130.114 132.242 132.294 130.318C122.831 111.025 103.443 93.7031 82.9715 89.3528C104.314 89.3424 125.447 100.406 139.04 120.545L137.878 123.264C138.304 122.478 138.692 121.671 139.04 120.848C144.555 107.892 141.212 89.4215 122.079 76.552C113.289 70.6392 97.9726 65.2208 81.6496 65.4737C67.5285 65.6931 52.6904 70.0077 39.9842 81.6433L39.984 81.6426ZM143.304 59.5257C145.79 62.3869 147.474 65.7526 148.456 69.3554C150.172 75.6528 150.061 82.6601 149.483 89.7891C148.327 104.047 145.506 119.001 148.771 128.134C151.865 136.785 156.797 141.87 162.26 144.378C164.596 145.453 167.114 146.08 169.682 146.227C175.643 128.445 174.312 105.873 164.371 90.5741C177.558 103.747 183.804 123.583 179.861 144.399C190.99 139.71 200.053 126.46 196.234 106.963C194.464 97.9294 188.352 85.1121 178.124 75.1987C169.441 66.7835 157.917 60.3863 143.305 59.5261L143.304 59.5257ZM65.5731 169.588C73.6063 181.827 84.9029 188.633 96.527 191.963C110.219 195.885 124.38 194.789 133.091 191.817C151.891 185.405 158.845 170.944 157.36 158.959C141.287 172.756 120.982 177.233 102.991 172.37C121.209 173.358 141.436 163.258 153.873 149.22C152.467 147.067 150.67 145.196 148.574 143.705C143.676 140.221 136.797 138.487 127.757 140.12C118.215 141.844 106.667 151.746 94.8867 159.859C88.9975 163.916 82.9847 167.508 76.671 169.161C73.0568 170.107 69.2955 170.316 65.5738 169.588L65.5731 169.588Z" fill="url(#paint0_linear_88_531)"/>
</g>
<defs>
<linearGradient id="paint0_linear_88_531" x1="90.8217" y1="30.8797" x2="50.1819" y2="136.96" gradientUnits="userSpaceOnUse">
<stop stop-color="#1C5BB8"/>
<stop offset="1" stop-color="#1CB82C"/>
</linearGradient>
<clipPath id="clip0_88_531">
<rect width="160" height="160" fill="white" transform="translate(0 113.054) rotate(-44.9578)"/>
</clipPath>
</defs>
</svg>
