<svg width="237" height="214" viewBox="0 0 237 214" fill="none" xmlns="http://www.w3.org/2000/svg">
<g clip-path="url(#clip0_88_529)">
<path d="M26.0019 28.9623C27.9756 26.3871 29.7815 23.5572 32.355 21.5485C65.4743 -4.45992 111.749 8.09526 138.301 28.4103C164.853 48.7251 164.94 89.7161 194.459 97.0053C202.239 98.5922 209.794 100.418 213.832 107.329C215.357 110.301 215.388 113.491 213.702 116.104C180.151 165.888 105.938 165.282 65.0068 139.844C39.9784 123.154 23.4856 100.453 18.2557 73.3098C16.116 66.1578 19.7839 57.3173 16.1047 50.7474C10.9855 47.7074 0.608617 48.7188 -5.68 48.281C-13.9008 48.2882 -19.6179 42.1525 -17.1599 33.9439C-11.0981 10.6412 19.7126 34.0066 26.0019 28.9623ZM43.4421 45.3563C42.7067 50.0338 46.0938 54.2134 50.0795 55.1785C85.1173 61.0631 110.839 81.5725 126.701 110.871C128.908 115.263 134.133 116.366 137.983 114.507C142.418 112.061 143.435 106.974 141.515 103.043C123.327 67.0648 90.4951 45.6957 53.3545 38.6661C48.4155 37.9115 44.2051 40.9971 43.4421 45.3563Z" fill="url(#paint0_linear_88_529)"/>
</g>
<defs>
<linearGradient id="paint0_linear_88_529" x1="141.785" y1="-17.4593" x2="53.6005" y2="102.911" gradientUnits="userSpaceOnUse">
<stop offset="0.0995216" stop-color="#1C5BB8"/>
<stop offset="1" stop-color="#1CB82C"/>
</linearGradient>
<clipPath id="clip0_88_529">
<rect width="200" height="200" fill="white" transform="translate(136.205 -60) rotate(60)"/>
</clipPath>
</defs>
</svg>
