<svg width="28" height="28" viewBox="0 0 28 28" fill="none" xmlns="http://www.w3.org/2000/svg">
<path d="M13.2513 11.9584V13.7971L13.9922 13.04C13.5142 13.6728 13.2513 14.4479 13.2513 15.2501V20.7501H13.0846V11.8334H13.2513V11.9584ZM16.918 11.5834C16.0993 11.5834 15.3089 11.8572 14.6691 12.3541C15.2953 11.7674 16.0585 11.4167 16.918 11.4167C17.9346 11.4167 18.9097 11.8206 19.6285 12.5395C20.3474 13.2584 20.7513 14.2334 20.7513 15.2501V20.7501H20.5846V15.2501C20.5846 14.2776 20.1983 13.345 19.5107 12.6574C18.8231 11.9697 17.8904 11.5834 16.918 11.5834ZM8.16797 8.66675C8.03536 8.66675 7.90818 8.61407 7.81442 8.5203C7.72065 8.42653 7.66797 8.29936 7.66797 8.16675C7.66797 8.03414 7.72065 7.90696 7.81442 7.81319C7.90818 7.71943 8.03536 7.66675 8.16797 7.66675C8.30058 7.66675 8.42775 7.71943 8.52152 7.81319C8.61529 7.90696 8.66797 8.03414 8.66797 8.16675C8.66797 8.29936 8.61529 8.42653 8.52152 8.5203L9.05185 9.05063L8.52152 8.5203C8.42775 8.61407 8.30058 8.66675 8.16797 8.66675ZM8.08464 11.8334H8.2513V20.7501H8.08464V11.8334Z" fill="#0A0A0A" stroke="#9E9E9E" stroke-width="1.5"/>
</svg>
