<svg width="14" height="14" viewBox="0 0 14 14" fill="none" xmlns="http://www.w3.org/2000/svg">
<path d="M12.664 11.8359L10.4998 9.68923C11.3399 8.64181 11.7467 7.31232 11.6366 5.97416C11.5266 4.63599 10.908 3.39086 9.90804 2.49478C8.90812 1.59869 7.60288 1.11978 6.26069 1.15651C4.91851 1.19323 3.64141 1.74281 2.69199 2.69223C1.74257 3.64165 1.19299 4.91876 1.15626 6.26094C1.11954 7.60312 1.59845 8.90837 2.49453 9.90829C3.39061 10.9082 4.63575 11.5268 5.97391 11.6369C7.31208 11.7469 8.64156 11.3401 9.68899 10.5001L11.8357 12.6467C11.8899 12.7014 11.9544 12.7448 12.0255 12.7744C12.0966 12.804 12.1728 12.8193 12.2498 12.8193C12.3268 12.8193 12.4031 12.804 12.4742 12.7744C12.5452 12.7448 12.6098 12.7014 12.664 12.6467C12.7691 12.538 12.8279 12.3926 12.8279 12.2413C12.8279 12.09 12.7691 11.9447 12.664 11.8359ZM6.41649 10.5001C5.60888 10.5001 4.81941 10.2606 4.14791 9.8119C3.47641 9.36322 2.95304 8.72549 2.64398 7.97936C2.33492 7.23323 2.25406 6.4122 2.41162 5.62011C2.56917 4.82803 2.95807 4.10045 3.52914 3.52938C4.1002 2.95832 4.82778 2.56942 5.61987 2.41186C6.41196 2.2543 7.23298 2.33517 7.97911 2.64422C8.72525 2.95328 9.36298 3.47665 9.81166 4.14815C10.2603 4.81966 10.4998 5.60913 10.4998 6.41673C10.4998 7.4997 10.0696 8.53831 9.30384 9.30409C8.53807 10.0699 7.49946 10.5001 6.41649 10.5001Z" fill="white"/>
</svg>
