<svg width="18" height="17" viewBox="0 0 18 17" fill="none" xmlns="http://www.w3.org/2000/svg">
<path d="M16.6129 7.19463L9.94626 0.527967C9.81946 0.40658 9.66993 0.311426 9.50626 0.247967C9.18165 0.11461 8.81754 0.11461 8.49293 0.247967C8.32926 0.311426 8.17973 0.40658 8.05293 0.527967L1.38626 7.19463C1.26194 7.31895 1.16333 7.46654 1.09605 7.62897C1.02877 7.7914 0.994141 7.96549 0.994141 8.1413C0.994141 8.49637 1.13519 8.8369 1.38626 9.08797C1.63733 9.33904 1.97786 9.48009 2.33293 9.48009C2.688 9.48009 3.02852 9.33904 3.2796 9.08797L7.66626 4.68797V14.808C7.66626 15.1616 7.80674 15.5007 8.05679 15.7508C8.30684 16.0008 8.64597 16.1413 8.9996 16.1413C9.35322 16.1413 9.69236 16.0008 9.9424 15.7508C10.1925 15.5007 10.3329 15.1616 10.3329 14.808V4.68797L14.7196 9.08797C14.8435 9.21294 14.991 9.31213 15.1535 9.37982C15.316 9.44751 15.4902 9.48237 15.6663 9.48237C15.8423 9.48237 16.0166 9.44751 16.179 9.37982C16.3415 9.31213 16.489 9.21294 16.6129 9.08797C16.7379 8.96402 16.8371 8.81655 16.9048 8.65407C16.9725 8.49159 17.0073 8.31732 17.0073 8.1413C17.0073 7.96529 16.9725 7.79101 16.9048 7.62853C16.8371 7.46605 16.7379 7.31858 16.6129 7.19463Z" fill="#19AF00"/>
</svg>
